# xmcd
#
# Track frame offsets: 
#        150
#        20422
#        35742
#        48253
#        62935
#        76945
#        96212
#        110537
#        125739
#        137921
#
# Disc length: 2019 seconds
#
# Revision: 2
# Processed by: cddbd v1.5.2PL0 Copyright (c) Steve Scherf et al.
# Submitted via: ExactAudioCopyFreeDBPlugin 1.0
#
DISCID=8b07e10a
DTITLE=Madeleine Peyroux - Secular Hymns
DYEAR=2016
DGENRE=Jazz
TTITLE0=Got You On My Mind
TTITLE1=Tango Till They're Sore
TTITLE2=The Highway Kind
TTITLE3=Everthing I Do Gonh Be Funky (From Now On)
TTITLE4=If The Sea Was Whiskey
TTITLE5=Hard Times Come Again No More
TTITLE6=Hello Babe
TTITLE7=More Time
TTITLE8=Shout Sister Shout
TTITLE9=Trampin'
EXTD=
EXTT0=
EXTT1=
EXTT2=
EXTT3=
EXTT4=
EXTT5=
EXTT6=
EXTT7=
EXTT8=
EXTT9=
PLAYORDER=
